# xmcd
#
# Track frame offsets:
#	150
#	17982
#	34657
#	53710
#
# Disc length: 1042 seconds
#
# Revision: 1
# Processed by: cddbd v1.5.2PL0 Copyright (c) Steve Scherf et al.
# Submitted via: audiograbber 1.83.01
#
DISCID=2a041004
DTITLE=Sound Of R.E.L.S. - Eee-lie-loe-lie (If U Wanna Get) [CDM)
DYEAR=1995
DGENRE=Dance
TTITLE0=Eee-lie-loe-lie (If U Wanna Get)
TTITLE1=Eee-lie-loe-lie (If U Wanna Get) (Jungo Powa Mix)
TTITLE2=Eee-lie-loe-lie (If U Wanna Get) (On The Bass Drum Mix)
TTITLE3=Eee-lie-loe-lie (If U Wanna Get) (Rave To The Rhythm Mix)
EXTD=TR.
EXTT0=
EXTT1=
EXTT2=
EXTT3=
PLAYORDER=
